<?xml version="1.0" encoding="utf-8"?>
<!-- Generator: Adobe Illustrator 19.2.1, SVG Export Plug-In . SVG Version: 6.00 Build 0)  -->
<svg version="1.1" id="layer" xmlns="http://www.w3.org/2000/svg" xmlns:xlink="http://www.w3.org/1999/xlink" x="0px" y="0px"
	 viewBox="0 0 652 652" style="enable-background:new 0 0 652 652;" xml:space="preserve">
<path d="M-11.6,298.6c-3,0-5.8,0.6-8.3,1.8c-2.5,1.2-4.7,2.9-6.5,5.1c-1.8,2.2-3.2,4.8-4.2,7.9c-1,3.1-1.5,6.5-1.5,10.3
	c0,6.4,1.7,11.5,5.1,15.2c1.6,1.8,3.7,3.3,6.2,4.4c2.5,1.1,4.9,1.6,7.3,1.6c1.2,0,2.5-0.1,3.9-0.2c1.5-0.2,3.1-0.4,4.8-0.7
	c-0.5,1.5-1,2.8-1.5,3.9c-0.5,1.1-1.1,2.1-1.6,2.9c-0.6,0.8-1.1,1.6-1.7,2.3c-0.6,0.7-1.3,1.4-2,2.1c-1,1-2,1.8-3,2.5
	c-1.1,0.7-2.3,1.4-3.7,1.9c-1.4,0.6-3.1,1.1-5,1.6c-1.9,0.4-4.2,0.9-6.7,1.3v3.3h1.1c5.5,0,10.3-0.7,14.5-2.1
	c4.2-1.4,7.5-3.5,10.1-6.2c3.9-4.1,6.6-8.9,8.2-14.4c1.6-5.5,2.4-12,2.4-19.5C6.2,306.9,0.2,298.6-11.6,298.6 M-2.2,327.3
	c0,1-0.1,2-0.2,3.1c-0.1,1.1-0.2,2.2-0.4,3.5c-0.2,1.3-0.4,2.8-0.6,4.7l-2.5,2c-1.6-0.3-3-0.5-4.2-0.8c-1.2-0.3-2.2-0.6-3.1-1
	c-0.9-0.4-1.8-0.8-2.5-1.4c-0.7-0.5-1.5-1.2-2.3-1.9c-1.7-1.7-3.1-4-4.1-6.9c-1.1-2.9-1.6-5.9-1.6-8.9c0-2.2,0.3-4.3,0.9-6.4
	c0.6-2.1,1.3-3.9,2.3-5.4c0.9-1.6,2-2.8,3.3-3.7c1.3-0.9,2.6-1.4,3.9-1.4c3.4,0,6.2,1.9,8.2,5.8c2,3.9,3.1,9.1,3.1,15.6
	C-2.2,325.3-2.2,326.4-2.2,327.3 M-36.8,344.3v-2c-2.3-0.4-4.1-0.9-5.6-1.5c-1.5-0.6-2.7-1.4-3.5-2.3c-0.9-1-1.5-2.2-1.8-3.6
	c-0.3-1.4-0.5-3.2-0.5-5.3v-14.6c0-2.3,0.1-4.2,0.4-5.7c0.3-1.5,0.8-2.7,1.6-3.6c0.8-0.9,1.9-1.6,3.3-2.1c1.4-0.5,3.2-0.9,5.5-1.3
	v-2h-28.1v2c2.1,0.4,3.8,0.8,5.1,1.4c1.3,0.5,2.3,1.2,3.1,2.2c0.7,0.9,1.2,2.1,1.5,3.6c0.3,1.5,0.4,3.3,0.4,5.6v14.6
	c0,2.1-0.2,3.9-0.5,5.3c-0.3,1.4-0.9,2.6-1.8,3.6c-0.9,1-2,1.7-3.5,2.3c-1.5,0.6-3.3,1.1-5.7,1.5v2H-36.8z M718.7,335.3
	c-1.1-2.3-2.7-4.4-4.7-6.3c-1-1-2.1-1.8-3.3-2.5c-1.2-0.7-2.5-1.3-4-1.9c-1.5-0.6-3.2-1.1-5.1-1.6c-1.9-0.5-4.2-1-6.9-1.6l-2.3-0.5
	l0.7-12.7h25.3l1.5-8h-31.6l-1.5,26.7c4.3,0.6,8,1.3,11.1,2.2c3.1,0.9,5.6,2.1,7.6,3.4c2,1.4,3.4,3.1,4.4,5c0.9,1.9,1.4,4.3,1.4,7
	c0,5.4-1.8,9.6-5.3,12.6c-3.5,3-8.4,4.6-14.6,4.6c-0.7,0-1.6,0-2.7-0.1c-1.1-0.1-2.4-0.2-4-0.3v3.4c1,0.2,1.9,0.3,2.7,0.4
	c0.8,0.1,1.5,0.2,2.2,0.2c0.7,0,1.5,0.1,2.3,0.1c0.8,0,1.8,0,2.9,0c1.8,0,3.4-0.1,4.8-0.2c1.4-0.1,2.7-0.3,4-0.6
	c1.2-0.3,2.4-0.7,3.4-1.2c1.1-0.5,2.1-1.1,3.2-1.8c3.1-1.9,5.5-4.5,7.3-7.7c1.8-3.2,2.7-6.5,2.7-10
	C720.4,340.6,719.8,337.6,718.7,335.3 M677.6,312.2c-0.9-2.7-2.2-5-3.9-7c-1.7-2-3.7-3.5-6-4.7c-2.3-1.1-4.8-1.7-7.4-1.7
	c-1.2,0-2.5,0.1-3.9,0.2c-1.4,0.2-3,0.4-4.7,0.7c0.6-1.7,1.2-3.1,1.7-4.4c0.5-1.2,1.1-2.3,1.6-3.3c0.6-1,1.2-1.9,1.9-2.7
	c0.7-0.8,1.5-1.7,2.4-2.6c1.6-1.7,3.3-3.1,5-4c0.8-0.4,1.5-0.8,2.3-1.2c0.7-0.3,1.6-0.6,2.5-0.8c0.9-0.2,2-0.5,3.3-0.7
	c1.3-0.2,2.8-0.5,4.6-0.7v-3.3H676c-5.5,0-10.2,0.7-14.1,2c-3.9,1.3-7.1,3.4-9.6,6.3c-3.7,4.1-6.5,9.1-8.5,15.2
	c-2,6.1-3,12.7-3,19.8c0,8.1,1.6,14.4,4.8,18.9c3.2,4.6,7.7,6.8,13.4,6.8c2.9,0,5.6-0.6,8-1.8c2.5-1.2,4.6-2.9,6.3-5
	c1.7-2.1,3.1-4.7,4.1-7.7c1-3,1.5-6.3,1.5-9.9C679,317.8,678.5,314.9,677.6,312.2 M669.2,332.5c-1,2.6-2.5,4.8-4.4,6.5
	c-1.6,1.5-3.1,2.2-4.6,2.2c-1.7,0-3.2-0.5-4.6-1.6c-1.4-1.1-2.5-2.5-3.5-4.5c-1-1.9-1.7-4.2-2.3-6.9c-0.6-2.7-0.8-5.6-0.8-8.9
	c0-1,0-2,0-3c0-1,0.1-2,0.2-3.1c0.1-1.1,0.2-2.2,0.4-3.5c0.2-1.3,0.4-2.8,0.6-4.6l2.5-2c1.6,0.3,3,0.5,4.2,0.8
	c1.2,0.3,2.2,0.6,3.1,1c0.9,0.4,1.7,0.8,2.4,1.4c0.7,0.5,1.5,1.2,2.2,1.9c1.8,1.7,3.3,4,4.3,6.8c1.1,2.8,1.6,5.7,1.6,8.8
	C670.8,327.1,670.3,329.9,669.2,332.5 M640.8,398.2h79.6v6.9h-79.6V398.2z M-68.3,398.2H2.6v6.9h-70.9V398.2z M133.8,368.3
	c4.4-0.7,5.6-4.5,5.6-9.6l0.1-25.6c0-5.5-1.4-9.2-5.6-9.6v-3.9h19.6c5.3,0,19-0.2,22.8-0.2c2.7,0,3.9,1,3.9,3.4
	c0,3.7-4.1,8-9.3,10.3c-1-0.8-1.8-1.5-2.7-2.4c0.3-0.9,0.8-1.8,0.8-2.9c0-3-3.2-4.4-8.1-4.4c-8.7,0-13,3.4-13,11.2l0,3.7
	c4.8-0.7,11.9,0.4,17.3,0.4c5.3,0,7.4-1.3,9.4-2.8c0.8-0.6,1.1-1,1.5-0.4c0.8,0.9,2.7,2.6,2.7,5.2c0,2.6-3.3,4-9.3,4
	c-6,0-12.9-1-16-1c-2.7,0-4.5,0.2-5.7,0.5l0,1.4l-0.1,5.4c0,12.2,3.9,17.1,14.6,17.1c7.3,0,11-3,11-7.3c0-6.2-4-7.7-4-10.3
	c0-1.3,0.7-1.9,2-1.9c3,0,14.8,7.5,14.8,17.5c0,4-3.5,6.3-9.8,6.3c-3.9,0-12-0.2-22.8-0.2h-19.8L133.8,368.3z M377.1,319.6
	c5.3,0,19-0.2,22.8-0.2c2.7,0,3.9,1,3.9,3.4c0,3.8-4.2,8-9.3,10.3c-1-0.8-1.8-1.5-2.7-2.4c0.3-0.9,0.8-1.8,0.8-2.9
	c0-3-3.2-4.4-8.1-4.4c-8.7,0-13,3.4-13,11.2l0,3.7c4.8-0.7,11.9,0.4,17.3,0.4c5.3,0,7.4-1.3,9.4-2.8c0.8-0.6,1.1-1,1.6-0.5
	c0.8,0.9,2.7,2.6,2.7,5.2c0,2.6-3.3,4-9.3,4c-6,0-13-1-16-1c-2.7,0-4.5,0.2-5.7,0.5l0,1.4l-0.1,5.4c0,12.2,3.9,17.1,14.6,17.1
	c7.3,0,11-3,11-7.3c0-6.2-4-7.7-4-10.3c0-1.3,0.7-1.9,2-1.9c3,0,14.8,7.5,14.8,17.5c0,4.1-3.5,6.3-9.8,6.3c-3.9,0-12-0.2-22.8-0.2
	h-19.8l0-3.9c4.4-0.7,5.6-4.5,5.6-9.6l0.2-25.6c0-5.5-1.4-9.2-5.6-9.6v-3.9H377.1z M225.7,282c-3.3,0-6.4-0.6-6.4-6.9v-3.2
	c0-7.8,4.4-11.2,13-11.2c6.3,0,11.8,2.6,11.8,7.5C244.2,275.6,236.8,282,225.7,282 M258.5,265.7c0-6.2-4.4-9.4-16-9.4
	c-3.8,0-12.2,0.5-17.5,0.5h-19.6v3.9c4.1,0.4,5.6,4.1,5.6,9.6l-0.2,25.6c0,5.1-1.2,9-5.6,9.6l0,3.9H225l0-3.9
	c-4.5-0.7-5.8-4.1-5.8-9.6v-5c0-3.3,2.6-4.1,4-4.1c1.8,0,3.4,0.3,5.8,0.3C247.7,287.1,258.5,275.7,258.5,265.7 M482.8,348.6
	c1.4,0,2,0.7,2,1.9c0,2.6-4,4.1-4,10.3c0,4.3,5,6.9,11.9,6.9c10.3,0,13-3.6,13-7.9c0-11.4-31.5-17.3-31.5-30.8
	c0-4.7,6.2-10.9,22.7-10.9c16.3,0,19.8,5.8,19.8,9.8c0,5.3-6.2,9.2-11.1,10.6c-1.6-1-2.5-1.7-4.1-2.5c2.2-1.7,3.9-3.6,3.9-5.7
	c0-2.3-3.7-4-9.2-4c-6.5,0-9.6,1.9-9.6,4.4c0,8,33.3,17,33.3,35.3c0,4.1-3.5,6.1-9.8,6.1c-3.9,0-5.4,0.1-16.2,0.1
	c-10.7,0-12.3-0.1-16.1-0.1c-6.4,0-9.8-2-9.8-6.1C468.1,356.1,479.8,348.6,482.8,348.6 M389,263.8c-3.3,3.6-24.4,26.5-26.4,28.8
	c-2.2,2.5-3.8,4.5-3.8,6.5c0,4.3,5.1,5.7,9.2,5.7c6.9,0,11.8-2.2,11.8-6.5c0-6.2-4-7.7-4-10.3c0-1.3,0.7-1.9,2.1-1.9
	c3,0,14.8,7.5,14.8,17.5c0,4.1-0.6,4.6-1.5,5.9h-50.9c0,0-0.4-3.8,1.9-6.5c2-2.3,24.3-27.2,26.3-29.7c1.9-2.5,3.1-4.4,3.1-6.5
	c0-2.8-1.8-5.6-7.5-5.6c-6.3,0-11.5,3.5-11.5,8.3c0,1.8,1.1,5.4,2.6,7c-1.1,1-2.2,1.9-3.3,3c-3.6-1.6-12.6-9.7-12.6-17.9
	c0-4.4,4.3-5.2,13-5.2c4.1,0,17.5,0.7,24,0.7c6.5,0,13.7-0.1,15.3-0.1C392,258.3,391.4,261.2,389,263.8 M333,263.5
	c-3.3,3.6-24.4,26.5-26.4,28.8c-2.2,2.5-3.8,4.5-3.8,6.5c0,4.3,5.1,5.7,9.2,5.7c6.9,0,11.8-2.2,11.8-6.5c0-6.2-4-7.7-4-10.3
	c0-1.3,0.7-1.9,2-1.9c3,0,14.8,7.5,14.8,17.5c0,4.1-0.6,4.6-1.5,5.9h-50.9c0,0-0.4-3.8,1.9-6.5c2-2.3,24.3-27.2,26.3-29.7
	c1.9-2.5,3.1-4.4,3.1-6.5c0-2.8-1.8-5.6-7.5-5.6c-6.3,0-11.5,3.5-11.5,8.3c0,1.8,1,5.4,2.6,7c-1.1,1-2.2,1.9-3.3,3
	c-3.6-1.6-12.6-9.7-12.6-17.9c0-4.4,4.3-5.2,13-5.2c4.1,0,17.5,0.6,24,0.6c6.5,0,13.7-0.1,15.3-0.1C336,258.1,335.4,260.9,333,263.5
	 M446.7,336c2.2-1.7,3.9-3.6,3.9-5.7c0-2.3-3.7-4-9.2-4c-6.5,0-9.6,1.9-9.6,4.4c0,8,33.3,17,33.3,35.3c0,4-3.5,6.1-9.8,6.1
	c-3.9,0-5.4,0.1-16.2,0.1c-10.7,0-12.3-0.1-16.1-0.1c-6.4,0-9.9-2.1-9.9-6.1c0-10,11.8-17.5,14.8-17.5c1.4,0,2,0.7,2,1.9
	c0,2.6-4,4.1-4,10.3c0,4.3,5,6.9,11.9,6.9c10.3,0,13-3.6,13-7.9c0-11.4-31.5-17.3-31.5-30.8c0-4.7,6.2-10.9,22.7-10.9
	c16.3,0,19.8,5.8,19.8,9.8c0,5.3-6.2,9.2-11.1,10.6C449.2,337.5,448.4,336.9,446.7,336 M331.6,368.3c2.4-0.4,2.5-2.8,0.4-5.9
	c-2.1-3.1-8.2-12.5-16.3-24.2c1.2-1.6,2.2-2.4,3.2-3.7c2,2.5,5.3,5.3,11.1,5.3c3.6,0,9.7-1.2,9.7-8.6c0-6-6.9-7.7-13.2-7.7
	c-8.6,0-13,3.4-13,11.2l0,11.1l-0.1,13c0,5.5,1.3,8.9,5.8,9.6l0,3.9h-19.8l0-3.9c4.4-0.7,5.6-4.5,5.6-9.6l0.1-25.6
	c0-5.5-1.4-9.2-5.6-9.6v-3.9H319c5.2,0,13.7-0.5,17.5-0.5c13.8,0,17.2,2.8,17.2,9.2c0,10-9.2,17.8-19.7,17.8c-1.5,0-2.4-0.2-2.9-0.3
	c6.5,10.2,12.5,21.3,22.1,22.5v4h-21.7V368.3z M259.7,334.6c0-7.8,4.4-11.2,13-11.2c6.3,0,11.8,2.5,11.8,7.5
	c0,7.4-7.4,13.8-18.4,13.8c-3.3,0-6.4-0.6-6.4-6.9V334.6z M263.6,349.6c1.8,0,3.4,0.3,5.8,0.3c18.7,0,29.5-11.4,29.5-21.4
	c0-6.2-4.4-9.4-16-9.4c-3.8,0-12.2,0.5-17.5,0.5h-19.6v3.9c4.1,0.5,5.6,4.1,5.6,9.6l-0.1,25.6c0,5.1-1.2,8.9-5.6,9.6l0,3.9h19.8
	l0-3.9c-4.5-0.7-5.8-4.1-5.8-9.6v-5.1C259.6,350.3,262.2,349.6,263.6,349.6 M219.8,368.3c4.4-0.7,5.9-2.9,3-6.8
	c-1-1.4-4.1-5.4-7.8-10.2c-3.7,4.8-6.7,8.8-7.7,10.2c-2.9,3.9-1.3,6.2,3,6.8l0,3.9h-22.5v-3.9c3.4-1.6,5.1-2.9,11.4-10.5
	c3.2-3.8,7-8.7,10.6-13.3c-4.1-5.3-8-10.4-10-13.1c-4.7-6.1-8.7-7.5-12.8-8v-3.9h24.3l0,3.9c-4.3,0.6-5,2.6-0.4,8.7
	c1.2,1.5,2.6,3.4,4.1,5.5c1.6-2.1,3-4,4.1-5.5c4.6-6,3.9-8.1-0.4-8.7l0-3.9h23v3.9c-4.1,0.5-6.8,1.8-11.5,8c-2,2.7-6,7.8-10,13.1
	c3.6,4.7,7.4,9.5,10.6,13.3c6.4,7.6,8,9,11.4,10.5l0,3.9h-22.5L219.8,368.3z M417.5,265.7c1.6,0,2.3,1.6,2.8,2.8
	c0.9,2.1,2.1,5.2,3.4,8.7c-5.5,3.4-10.8,9.5-15.9,19.6c-2.8-2.7-3.9-6.5-3.9-10.8C403.9,274.6,412.7,265.7,417.5,265.7 M399.2,309.5
	h14.4c-0.4-12.3,5.6-21.6,12.5-25.6c2,5.8,3.9,11.3,4.7,13.8c1.6,5,0.8,7.5-3.5,8.2l0,3.9h22.5v-3.9c-5.3-1.8-7.2-2.7-10.1-10.2
	c-2.1-5.4-3.7-9.8-5.1-13.9c4.1,0.4,4.1,3.1,6.7,3.1c2.5,0,3.6-2.5,3.6-4.6c0-3.9-2.7-6.8-7.9-6.8c-1.7,0-3.4,0.1-5.1,0.5
	c-0.2-0.6-0.4-1.2-0.6-1.8c-3-8.8-2.1-10.6,2.2-11.2l0-3.9h-29.2v3.9c1.5,0.2,2.7,0.6,2.7,2.1c0,2.8-12.2,8.8-12.2,29.3
	C394.9,298,395.8,303.5,399.2,309.5 M260.3,305.7c4.4-0.7,5.6-4.5,5.6-9.6l0.1-25.6c0-5.5-1.4-9.2-5.6-9.6v-3.9h19.6l0,3.9
	c-4.3,0.6-5.6,4.5-5.6,9.6l-0.2,12.9l0,12.7c0,5.5,1.3,8.9,5.8,9.6v3.9h-19.8L260.3,305.7z M373.2,498.1c7.5,0,10.8,2.5,10.8,5.6
	c0,3.2-3.5,5.9-10,5.9c-5.2,0-12-1.8-17.2-5.7c1.2-0.9,2.5-1.7,3.9-2.6C364,499.3,369.9,498.1,373.2,498.1 M536.5,300.8
	c-11.3-22.9-29.9-41.1-51.2-55.2c1.8-0.6,3.9-0.9,6-0.9c25,0,46.1,27.5,46.1,55.3C537.4,302.6,537.4,302.7,536.5,300.8 M366.3,186.9
	c-11.3,0-20.7-1-20.7-6.1c0-4.2,7.1-4.8,16.6-4.3c13.1,0.7,25.4-2.8,28.5-12.7c0.3,0,0.7,0,1,0c18.8,0,30.7-4.4,30.7-15.1
	c0-7.3-6.6-10.2-19.2-11.9c-18.1-2.4-15.6-9.3-17.6-9.3c-0.7,0-1.6,1.5-1.6,3.4c0,11.5,20.1,9.2,20.1,19.8c0,4.7-4.5,7.3-12.8,7.5
	c-0.3-10.2-9.4-19.5-33.6-19.5c-2,0-4,0.1-5.9,0.4c-2.4-3.8-3.8-7.9-3.8-12.2c0-8.3,4.4-11.1,15.6-11.1c13.5,0,37.4,5.3,72,25.6
	c28.1,16.5,54.7,45.2,54.7,60.5c0,6.6-6.8,11.7-20.6,11.7c-5.3,0-8.8-0.2-11-0.7c-1.6-0.4-2.2-0.6,0-1.1c13.4-2.5,17.8-8.2,17.8-15
	c0-10.8-15.6-8.2-15.6-15.9c0-2.3,1.8-2.4,1.8-3.4c0-0.8-0.9-1.1-2.2-1.1c-3.2,0-7,3.6-7,8.1c0,6.7,6.6,7.9,6.6,14.4
	c0,5.4-4.2,8.7-12.2,8.7c-19.9,0-40.1-14-64.8-19.1c11.5-6.1,24.6-11,35.6-11c5.2,0,8.8,2,8.8,6.1c0,5.1-7,6.2-7,8
	c0,1.8,3.2,2.2,7.2,2.2c7.1,0,17.4-5.1,17.4-14c0-9.1-8.7-12.6-19.1-12.6c-15.8,0-38.3,8.5-56.5,19.6
	C368.5,187,367.4,186.9,366.3,186.9 M356.5,145c1.4-0.2,2.8-0.3,4.4-0.3c8.9,0,19.6,4.3,19.6,12.5c0,0.1,0,0.2,0,0.3
	C371.3,155.5,362.5,151,356.5,145 M488.8,231.5c-6.3,0-12.8,2-18.3,5.3c-35.3-19.4-74.5-28.3-98.5-28.3c-6,0-11.3,0.5-15.3,1.3
	c-1.1,0.2-1.1-0.2-0.6-0.8c3-4.1,10.2-10.1,19.3-15.8c9.4,1.2,17.8,3.6,28.5,7.9c20.5,8.3,40.6,19.1,67.4,19.1
	c24.7,0,36.1-5.4,36.1-16.7c0-10.2-8.4-23.1-21.8-36.4c-13.4-13.3-31.9-26.8-52.2-38c-30.6-16.8-58-24.2-76.6-24.2
	c-16.1,0-25.9,4.8-25.9,17.4c0,6.4,3.8,13.4,10,19.9c-6.2,3-9.9,7.6-9.9,13.2c0,6.8,7.4,11.8,14.9,11.8c3.5,0,6-1,6-2.9
	c0-2-8.9,0.1-8.9-8.8c0-2.3,1.6-5,4.6-7.1c8.6,6.7,19.7,12.1,31.6,14.3c-7.3,14.2-45.1,2.2-45.1,20c0,5,9.1,9.4,19.2,9.4
	c2.9,0,5.7,0,8.3,0.1c-13,9.1-22.2,19.2-22.2,27.4c0,8.8,7.3,14.8,17.2,14.8c1.2,0,2-0.6,1.9-1.1c0-0.3-0.4-0.5-1-0.7
	c-1.9-0.6-4-3.2-4-6.5c0-2.7,0.9-10,19.8-10c28.2,0,61.9,8.8,91.6,24.7c-4.2,3.9-6.9,8.8-6.9,13.9c0,21.3,25.5,18.8,25.5,26.8
	c0,5.9-15.8,3.5-15.8,13c0,7.6,7,12.1,10.7,12.1c0.8,0,1.5-0.3,1.5-1.1c0-1.5-3.5-2.6-3.5-6.9c0-8.8,24.2-4.4,24.2-17.2
	c0-12-25.4-8.3-25.4-24.1c0-3,1.4-5.9,3.8-8.2c34.3,22.3,60.2,54.8,60.2,94.7c0,50-20.9,88.1-84.8,88.1c-39.8,0-52.9-11.3-52.9-21.7
	c0-8.7,5.4-12.4,13.4-12.4c15.3,0,33.8,18.2,63.4,18.2c7.8,0,19.4-2.8,19.4-11.3c0-10.5-22.4-10.9-22.4-19.6c0-1.5,0.6-1.4,0.6-2.2
	c0-0.6-0.8-0.8-1.6-0.8c-1.7,0-4.4,1.6-4.4,4.7c0,6.2,8,9.1,8,14.6c0,4.9-4.5,5.6-10.8,5.6c-21.1,0-33.8-18.6-63.9-18.6
	c-12.8,0-20.8,6.5-20.8,17.7c0,14.1,23.3,32.5,71.4,32.5c6.1,0,11.9-0.4,17.4-1.1c-17.5,7.2-36.5,11.4-67.1,11.4
	c-23.1,0-47-5.3-47-21.2c0-3,2.1-5.6,4.7-5.6c11.2,0,8.6,14.2,21,14.2c0.5,0,4.7-0.7,4.7-3c0-2.5-3.3,2.1-7.2-3.7
	c-2.9-4.2-5.8-18-23.1-18c-10.7,0-17.5,5.4-17.5,15.4c0,19.5,27,27.8,50.4,30.3c15.3,1.7,23.6,4.7,23.6,10.5c0,5.2-6.3,6.5-11.2,6.5
	c-23.6,0-28.9-6.4-49.1-6.4c-12.2,0-19.7,6.1-19.7,15.5c0,6.7,4.5,14.6,11.5,21c-8.9,8.2-14.1,17.8-14.1,25.6
	c0,11.1,9.2,17.7,22.3,17.7c6.4,0,16.9-1.2,29.4-4.1c13.8-3.2,40.7-14.4,64.5-29.2c21.9-13.7,44.1-29.3,44.1-48.2
	c0-9.3-7.2-14.2-16.8-14.2c-14,0-20.6,9.3-25.9,20.3c-1.7,3.5-3.5,6.8-7.8,6.8c-2.5,0-3.6-1.8-4.7-1.8c-0.4,0-0.9,0.1-0.9,1.3
	c0,3.1,2.7,6.2,7.6,6.2c14.9,0,13.2-19.5,26.6-19.5c3.4,0,6.7,2.6,6.7,7.2c0,10-13.1,20.8-37,36.5c-17.5,11.5-37,18.9-51.9,22.9
	c-10.1,2.7-18.5,4-25,4c-11.4,0-17.9-5.3-17.9-12.7c0-4.8,2.4-9.8,6.4-14.3c6.9,4.7,15.3,7.9,23.8,7.9c11.5,0,19.8-4.2,19.8-12.7
	c0-6.2-6-10.2-10.2-10.7c-1-0.1-1-0.6,0.2-0.8c2.7-0.4,3.9-0.6,8.2-0.6c10.4,0,16.1,4.2,16.1,10.7c0,6.6-7.2,11-11.1,11
	c-1.1,0-1.8,0.3-1.8,0.9c0,1.5,2.6,3,7.3,3c9,0,20.7-5.1,20.7-14.8c0-10.4-14.2-17.2-29.3-17.2c-16.8,0-31.4,5.5-42.4,13.2
	c-2.2-2.9-3.5-6.5-3.5-10.8c0-9.1,5.2-14,16.2-14c11.1,0,22.5,5.8,40.8,5.8c14,0,21.2-3.6,21.2-10.3c0-7.7-14-12.9-17.6-12.9
	c63.8-4.4,92.6-23.3,109.2-38.4c17.2-14.2,26.6-34.6,30.4-56.4c1.8-10.4,2.6-22.3,2.6-34.4C551.5,277.9,531.4,231.5,488.8,231.5
	 M269.4,503.7c0-3.1,3.3-5.6,10.8-5.6c3.3,0,9.2,1.2,12.5,3.2c1.4,0.8,2.6,1.7,3.9,2.6c-5.2,3.8-12,5.7-17.2,5.7
	C272.9,509.6,269.4,506.9,269.4,503.7 M162,244.7c2.2,0,4.2,0.3,6.1,0.9c-21.3,14-39.9,32.3-51.2,55.2c-0.9,1.8-1,1.7-1-0.8
	C116,272.2,137,244.7,162,244.7 M205.4,207.8c-8,0-12.2-3.4-12.2-8.7c0-6.5,6.6-7.7,6.6-14.4c0-4.5-3.8-8.1-7-8.1
	c-1.3,0-2.2,0.3-2.2,1.1c0,1,1.8,1.1,1.8,3.4c0,7.6-15.5,5.1-15.5,15.9c0,6.8,4.4,12.5,17.8,15c2.3,0.4,1.6,0.7,0,1.1
	c-2.2,0.5-5.7,0.7-11,0.7c-13.9,0-20.6-5.2-20.6-11.7c0-15.3,26.7-43.9,54.7-60.5c34.6-20.4,58.5-25.6,72-25.6
	c11.2,0,15.6,2.7,15.6,11.1c0,4.3-1.4,8.4-3.8,12.2c-1.9-0.2-3.8-0.4-5.9-0.4c-24.2,0-33.3,9.2-33.6,19.5
	c-8.2-0.2-12.8-2.8-12.8-7.5c0-10.7,20.1-8.4,20.1-19.8c0-1.8-0.9-3.3-1.6-3.3c-2.1,0,0.4,6.9-17.6,9.3
	c-12.6,1.7-19.2,4.6-19.2,11.9c0,10.7,11.9,15.1,30.7,15.1c0.3,0,0.7,0,1,0c3,9.8,15.4,13.4,28.5,12.7c9.4-0.5,16.6,0.1,16.6,4.3
	c0,5-9.5,6.1-20.7,6.1c-1.1,0-2.2,0-3.3,0.1c-18.1-11-40.7-19.5-56.5-19.5c-10.5,0-19.1,3.5-19.1,12.6c0,8.9,10.3,14,17.4,14
	c4,0,7.2-0.4,7.2-2.2c0-1.8-7-2.9-7-8c0-4.1,3.6-6.1,8.8-6.1c11,0,24.1,4.8,35.6,11C245.5,193.8,225.2,207.8,205.4,207.8
	 M272.9,157.4c0-0.1,0-0.2,0-0.3c0-8.2,10.7-12.5,19.6-12.5c1.6,0,3,0.1,4.4,0.4C290.9,151,282.2,155.5,272.9,157.4 M308.2,504.8
	c7-6.4,11.5-14.3,11.5-21c0-9.4-7.5-15.5-19.7-15.5c-20.2,0-25.6,6.4-49.1,6.4c-4.9,0-11.2-1.4-11.2-6.5c0-5.8,8.2-8.8,23.6-10.5
	c23.4-2.5,50.4-10.8,50.4-30.3c0-10-6.8-15.4-17.5-15.4c-17.3,0-20.2,13.7-23.1,18c-4,5.8-7.2,1.2-7.2,3.7c0,2.3,4.2,3,4.7,3
	c12.4,0,9.8-14.2,21-14.2c2.6,0,4.7,2.6,4.7,5.6c0,15.9-23.9,21.2-47,21.2c-30.6,0-49.6-4.2-67.1-11.4c5.5,0.7,11.3,1.1,17.4,1.1
	c48.1,0,71.4-18.4,71.4-32.5c0-11.2-8-17.7-20.8-17.7c-30.1,0-42.8,18.6-63.9,18.6c-6.3,0-10.8-0.7-10.8-5.6c0-5.6,7.9-8.4,7.9-14.6
	c0-3.2-2.7-4.7-4.4-4.7c-0.8,0-1.6,0.3-1.6,0.8c0,0.8,0.6,0.8,0.6,2.2c0,8.7-22.4,9.1-22.4,19.6c0,8.4,11.5,11.3,19.4,11.3
	c29.6,0,48.1-18.2,63.4-18.2c8,0,13.4,3.7,13.4,12.4c0,10.4-13,21.7-52.9,21.7c-63.9,0-84.8-38.1-84.8-88.1
	c0-39.9,25.9-72.4,60.2-94.7c2.4,2.3,3.8,5.2,3.8,8.2c0,15.7-25.4,12.1-25.4,24.1c0,12.8,24.2,8.4,24.2,17.2c0,4.3-3.5,5.4-3.5,6.9
	c0,0.8,0.8,1.1,1.5,1.1c3.7,0,10.7-4.5,10.7-12.1c0-9.5-15.8-7.1-15.8-13c0-8.1,25.5-5.5,25.5-26.8c0-5.2-2.7-10-6.9-13.9
	c29.7-16,63.4-24.7,91.6-24.7c18.8,0,19.8,7.3,19.8,10c0,3.3-2,5.9-4,6.5c-0.5,0.2-0.9,0.4-1,0.7c-0.1,0.5,0.7,1.1,1.9,1.1
	c9.9,0,17.2-6.1,17.2-14.8c0-8.1-9.2-18.2-22.2-27.4c2.6-0.1,5.3-0.1,8.3-0.1c10.1,0,19.2-4.4,19.2-9.4c0-17.7-37.8-5.7-45.1-20
	c11.9-2.3,23-7.7,31.6-14.3c3,2.1,4.6,4.8,4.6,7.1c0,8.9-8.9,6.9-8.9,8.8c0,2,2.5,2.9,6,2.9c7.6,0,14.9-4.9,14.9-11.8
	c0-5.6-3.7-10.2-9.9-13.2c6.2-6.5,10-13.5,10-19.9c0-12.6-9.8-17.4-25.9-17.4c-18.6,0-46,7.3-76.6,24.2
	c-20.3,11.2-38.8,24.7-52.2,38c-13.4,13.3-21.8,26.2-21.8,36.4c0,11.3,11.4,16.7,36.1,16.7c26.8,0,46.9-10.8,67.4-19.1
	c10.7-4.3,19.1-6.7,28.5-7.9c9.1,5.7,16.3,11.7,19.3,15.8c0.4,0.6,0.5,1-0.6,0.8c-4-0.8-9.3-1.3-15.3-1.3
	c-24.1,0-63.2,8.9-98.5,28.3c-5.4-3.3-12-5.3-18.2-5.3c-42.6,0-62.7,46.4-62.7,96.3c0,12.2,0.8,24,2.6,34.4
	c3.8,21.8,13.2,42.2,30.4,56.4c16.6,15.1,45.4,34,109.2,38.4c-3.5,0-17.6,5.3-17.6,12.9c0,6.7,7.3,10.3,21.2,10.3
	c18.2,0,29.7-5.8,40.8-5.8c11,0,16.2,4.9,16.2,14c0,4.3-1.4,7.8-3.5,10.8c-11-7.7-25.6-13.2-42.4-13.2c-15.1,0-29.3,6.8-29.3,17.2
	c0,9.6,11.7,14.8,20.7,14.8c4.7,0,7.3-1.5,7.3-3c0-0.7-0.7-0.9-1.8-0.9c-4,0-11.1-4.3-11.1-11c0-6.5,5.7-10.7,16.1-10.7
	c4.3,0,5.5,0.1,8.2,0.6c1.1,0.2,1.2,0.7,0.2,0.8c-4.2,0.5-10.2,4.5-10.2,10.7c0,8.5,8.3,12.7,19.8,12.7c8.5,0,16.8-3.2,23.8-7.9
	c4.1,4.5,6.4,9.5,6.4,14.3c0,7.4-6.4,12.7-17.9,12.7c-6.4,0-14.8-1.2-25-4c-14.9-4-34.3-11.4-51.9-22.9c-23.9-15.7-37-26.5-37-36.5
	c0-4.7,3.4-7.2,6.7-7.2c13.5,0,11.7,19.5,26.6,19.5c4.8,0,7.6-3.1,7.6-6.2c0-1.2-0.5-1.3-0.9-1.3c-1.1,0-2.2,1.8-4.7,1.8
	c-4.3,0-6.2-3.3-7.9-6.8c-5.3-11-11.9-20.3-25.9-20.3c-9.6,0-16.8,4.9-16.8,14.2c0,18.9,22.2,34.5,44.1,48.2
	c23.7,14.8,50.7,26,64.5,29.2c12.5,2.9,23,4.1,29.5,4.1c13.2,0,22.3-6.5,22.3-17.7C322.3,522.5,317.1,513,308.2,504.8 M326.6,563.8
	C195.8,563.8,89,457.1,89,326.3S195.8,88.7,326.6,88.7c130.8,0,237.6,106.7,237.6,237.6S457.4,563.8,326.6,563.8 M326.6,76.3
	c-137.7,0-250,112.3-250,250c0,137.7,112.3,250,250,250c137.7,0,250-112.3,250-250C576.6,188.6,464.3,76.3,326.6,76.3"/>
</svg>
